<?xml version="1.0" standalone="no"?>
<!DOCTYPE svg PUBLIC "-//W3C//DTD SVG 20010904//EN"
 "http://www.w3.org/TR/2001/REC-SVG-20010904/DTD/svg10.dtd">
<svg version="1.0" xmlns="http://www.w3.org/2000/svg"
 width="1408.000000pt" height="1408.000000pt" viewBox="0 0 1408.000000 1408.000000"
 preserveAspectRatio="xMidYMid meet">
<metadata>
Created by potrace 1.14, written by Peter Selinger 2001-2017
</metadata>
<g transform="translate(0.000000,1408.000000) scale(0.100000,-0.100000)"
fill="#000000" stroke="none">
<path d="M0 7040 l0 -7040 7040 0 7040 0 0 7040 0 7040 -7040 0 -7040 0 0
-7040z m3738 1208 c411 -675 749 -1228 753 -1228 3 0 333 553 735 1230 l729
1229 503 1 502 0 0 -647 c0 -357 3 -1320 7 -2140 l6 -1493 -555 0 -555 0 -7
92 c-3 50 -7 485 -7 967 -1 482 -4 948 -8 1036 l-6 160 -545 -915 -545 -915
-270 -3 -270 -2 -545 889 -545 889 -3 -1099 -2 -1099 -560 0 -560 0 0 2140 0
2140 501 -2 501 -3 746 -1227z m6587 1204 c562 -89 1012 -301 1344 -633 261
-261 442 -593 520 -951 70 -322 70 -739 0 -1052 -183 -826 -856 -1416 -1789
-1570 -233 -39 -250 -39 -1417 -43 l-1153 -4 0 2141 0 2141 1178 -4 c1158 -3
1179 -3 1317 -25z m-1153 -5056 c249 -48 430 -214 484 -443 23 -96 15 -257
-16 -338 -100 -261 -342 -408 -645 -392 -363 19 -613 284 -592 627 10 154 66
278 173 383 145 143 375 205 596 163z m-5562 -131 l0 -125 -287 -2 -288 -3 0
-95 0 -95 253 -3 252 -2 0 -120 0 -120 -255 0 -255 0 0 -105 0 -105 300 0 300
0 0 -125 0 -125 -455 0 -455 0 0 575 0 575 445 0 445 0 0 -125z m1383 97 c212
-58 361 -198 412 -388 21 -77 21 -241 1 -317 -60 -223 -242 -370 -501 -406
-42 -6 -209 -11 -371 -11 l-294 0 0 568 c0 313 3 572 8 576 4 5 156 6 337 3
296 -4 338 -6 408 -25z m1355 -549 l2 -573 -160 0 -160 0 0 575 0 576 158 -3
157 -3 3 -572z m1572 447 l0 -130 -175 0 -175 0 0 -445 0 -445 -160 0 -160 0
0 445 0 445 -175 0 -175 0 0 130 0 130 510 0 510 0 0 -130z m3053 107 c140
-40 241 -117 293 -224 23 -45 29 -74 32 -146 3 -50 -1 -113 -7 -143 -18 -77
-78 -164 -150 -215 l-60 -42 53 -76 c135 -195 186 -269 186 -275 0 -3 -76 -6
-168 -6 l-169 0 -104 153 -104 152 -90 0 -90 0 -3 -152 -3 -153 -159 0 -160 0
0 568 c0 313 3 572 8 576 4 4 149 6 322 3 251 -3 327 -7 373 -20z"/>
<path d="M9040 7344 l0 -1175 508 4 c471 3 513 5 592 24 252 62 424 157 582
321 164 171 241 331 283 587 20 120 19 365 -1 486 -87 518 -466 858 -1022 918
-58 6 -285 11 -522 11 l-420 0 0 -1176z"/>
<path d="M8923 4124 c-58 -21 -129 -87 -160 -148 -35 -68 -44 -207 -18 -285
23 -69 99 -152 167 -181 77 -33 175 -33 248 1 79 37 115 71 152 147 30 60 33
75 33 157 0 76 -4 99 -26 146 -31 65 -82 120 -142 151 -55 28 -192 35 -254 12z"/>
<path d="M4570 3815 l0 -317 158 4 c148 3 160 5 208 30 115 60 170 165 162
307 -8 124 -67 214 -173 263 -44 20 -69 23 -202 26 l-153 4 0 -317z"/>
<path d="M10592 3963 l3 -168 125 0 c106 1 132 4 173 23 39 17 51 29 69 68 36
83 16 165 -56 218 -24 19 -45 21 -172 24 l-144 3 2 -168z"/>
</g>
</svg>
